Rock Legends The Best Of 50s 60s 70s from The Ed Sullivan Show vol.1       
 





Tracklist :

01. The Beatles - All My Loving (1964)
02. Elvis presley - Heartbreak Hotel (1957)
03. The Doors - People Are Strange (1967)
04. Diana Ross & The Supremes - I'm Living In Shame (1967)
05. Creedence Clearwater Revival - Fortunate Son (1969)
06. The Beach Boys - Wendy (1964)
07. The Animals - Don't Let Me Be Misunderstood (1965)
08. The Rolling Stones - (I Can't Get No) Satisfaction (1966)
09. The Animals - Bring It On Home (1965)
10. Jerry Lee Lewis - Whole Lo Of Shakin' Goin' On (1969)
11. Elvis Presley - Hound Dog (1956)
12. James Brown - Papa's Got A Brand New Bag / I Got You (1966)
13. The Temptations - Don't Look Back (1967)
14. Buddy Holly & The Crickets - Peggy Sue (1957)
15. Jerry Lee Lewis - What'd I Say (1969)
16. Fats Domino - Blueberry Hill (1956)
17. Diana Ross & The Supremes - Forever Came Today (1968)
18. Bill Haley & His Comets - Rock Around The Clock (1955)
19. Elvis Presley - Don's Be Cruel (1956)



DVD Features:
Menu: Ja
Available Audio Tracks : DD 2.0
Main Language: Engels
Disc Format: DVD 5
Cover : Nee 
Video
ID                               : 224 (0xE0)
Format                           : MPEG Video
Format version                   : Version 2
Format profile                   : Main@Main
Format settings, Matrix          : Default
Duration                         : 20mn 14s
Bit rate mode                    : Variable
Bit rate                         : 6 536 Kbps
Nominal bit rate                 : 8 000 Kbps
Width                            : 720 pixels
Height                           : 576 pixels
Display aspect ratio             : 4/3
Frame rate                       : 25.000 fps
Standard                         : PAL
Colorimetry                      : 4:2:0
Scan type                        : Interlaced
Scan order                       : Top Field First
Bits/(Pixel*Frame)               : 0.630
Stream size                      : 946 MiB (92%)

Audio
ID                               : 128 (0x80)
Format                           : AC-3
Format/Info                      : Audio Coding 3
Duration                         : 20mn 14s
Bit rate mode                    : Constant
Bit rate                         : 256 Kbps
Channel(s)                       : 2 channels
Channel positions                : L R
Sampling rate                    : 48.0 KHz
Video delay                      : -768ms
Stream size                      : 37.1 MiB (4%)
 
Spotinformatie 
Categorie : Beeld 
Formaat : DVD5 
Bron : Retail
 
Ondertitels : Geen
 
Genre : Muziek 

*****************************************

Brought to you by 
Pioen

2Lions Team

meer zien??
Kom dan eens kijken op ons forum 




2Lions the site to be for all your Dutch MOVIES and more

******************************************


DON T HIT AND RUN Niet gelijk afhaken als de FILM binnen is blijf seeden. 

Don`t quit after you finished the download, but keep seeding


There are fake torrents from uploaders who use our team name.
Those are not ours, or members from our team.
We 2Lions-Team are not responsible for the fake posts on our name

Wij 2Lions-Team zijn niet verantwoordelijk voor die zieke FAKE posten die op onze naam worden gedaan
 

